<?xml version="1.0" encoding="UTF-8" standalone="no"?>
<svg
   id="a"
   width="3406.322"
   height="2344.1355"
   viewBox="0 0 3406.322 2344.1355"
   version="1.1"
   sodipodi:docname="red_epa.svg"
   inkscape:version="1.3.2 (091e20e, 2023-11-25)"
   xmlns:inkscape="http://www.inkscape.org/namespaces/inkscape"
   xmlns:sodipodi="http://sodipodi.sourceforge.net/DTD/sodipodi-0.dtd"
   xmlns="http://www.w3.org/2000/svg"
   xmlns:svg="http://www.w3.org/2000/svg">
  <defs
     id="defs40">
    <rect
       x="2161"
       y="164.82204"
       width="4010.6694"
       height="521.93646"
       id="rect40" />
    <rect
       x="2161"
       y="164.82204"
       width="4010.6694"
       height="521.93646"
       id="rect40-0" />
  </defs>
  <sodipodi:namedview
     id="namedview40"
     pagecolor="#ffffff"
     bordercolor="#666666"
     borderopacity="1.0"
     inkscape:showpageshadow="2"
     inkscape:pageopacity="0.0"
     inkscape:pagecheckerboard="0"
     inkscape:deskcolor="#d1d1d1"
     inkscape:zoom="0.1092087"
     inkscape:cx="1533.7606"
     inkscape:cy="988.9322"
     inkscape:window-width="1312"
     inkscape:window-height="449"
     inkscape:window-x="0"
     inkscape:window-y="25"
     inkscape:window-maximized="0"
     inkscape:current-layer="g41" />
  <g
     id="g41"
     transform="translate(28.730538,-31.973898)">
    <path
       d="m 2767.4014,1359.8278 h -443.94 l 219.68,-520.82 h 3.13 l 125.13,295.18 h 152.45 l -185.58,-416.8 c -10.42,-24.97 -23.66,-42.64 -39.77,-53.02 -16.13,-10.38 -33.52,-15.59 -52.23,-15.59 -19.76,0 -37.69,5.21 -53.8,15.59 -16.13,10.38 -29.37,28.05 -39.75,53.02 l -422.59,948.04 c -8.33,19.76 -11.44,37.43 -9.36,53.02 2.08,15.59 9.36,28.09 21.84,37.43 12.46,9.38 29.09,14.03 49.89,14.03 20.8,0 37.43,-5.45 49.91,-16.35 12.46,-10.94 23.9,-28.85 34.3,-53.82 l 89,-208.94 h 556.69 l -55.01,-130.96 z"
       fill="#1d1d1b"
       stroke-width="0"
       id="path1" />
    <path
       d="m 3024.7014,1765.1278 c 2.04,1.6 6.69,2.15 8.69,0.88 2.42,-1.58 5,-3.56 5,-8.84 v -126.82 c 0,-10.23 -2.15,-20.34 -6.32,-29.68 l -208.21,-466.49 h -152.45 l 96.01,225.65 55.01,130.96 80.26,185.71 c 3.22,7.44 8.41,13.87 15.01,18.57 25.87,18.45 102.74,66.79 107.01,70.05 z m -44.66,-49.19 c -18.15,-13.55 -40.17,-30.14 -59.37,-44.56 7.24,-6.78 13.31,-13.42 20.41,-18.63 2.64,-1.95 7.77,-0.94 11.69,-0.51 31.07,3.25 22.92,7.48 39.2,-17.06 8.2,-12.27 17.22,-18.45 29.66,-15.51 -0.05,2.53 0.13,55.5 -1.78,75.78 -1.1,11.96 -30.31,27.59 -39.81,20.5 z"
       fill="#739600"
       stroke-width="0"
       id="path2" />
    <path
       d="m 1827.3114,740.1378 c -64.78,-58.99 -156.66,-88.52 -275.72,-88.52 h -374.43 c -26.12,0 -46.49,7.05 -61.09,21.15 -14.64,14.1 -21.93,34.74 -21.93,61.89 v 949.37 c 0,26.12 7.05,46.48 21.14,61.1 14.1,14.61 34.2,21.93 60.32,21.93 26.12,0 47.5,-7.32 61.09,-21.93 13.57,-14.61 20.37,-34.98 20.37,-61.1 v -902.37 h 271.02 c 78.34,0 137.61,17.5 177.82,52.48 40.19,35 60.31,86.43 60.31,154.31 0,67.88 -20.13,120.89 -60.31,155.88 -10.12,8.81 -21.5,16.45 -34.04,23.03 l 115.45,49.53 c 27.65,11.86 60.16,3.43 77.85,-20.91 39.49,-54.37 59.28,-123.53 59.28,-207.53 0,-106.53 -32.37,-189.29 -97.12,-248.31 z"
       fill="#1d1d1b"
       stroke-width="0"
       id="path3" />
    <path
       d="m 1380.4314,1326.8378 v 86.46 c 0,16.05 16.38,26.89 31.16,20.62 l 343.56,-145.9 c 20.62,-8.76 20.65,-37.96 0.06,-46.77 l -130.44,-55.79 -213.13,-91.16 c -14.78,-6.33 -31.22,4.52 -31.22,20.59 v 81.91 h -123.37 v 130.02 h 123.37 z"
       fill="#739600"
       stroke-width="0"
       id="path4" />
    <path
       d="m 847.92136,784.5278 c 22.16,0 39.02,-5.79 50.64,-17.41 11.59,-11.59 17.4,-28.47 17.4,-50.62 0,-22.15 -5.81,-37.19 -17.4,-48.26 -11.62,-11.07 -28.48,-16.62 -50.64,-16.62 h -507.86 v 132.9 h 507.87 z"
       fill="#1d1d1b"
       stroke-width="0"
       id="path5" />
    <path
       d="m 847.92136,1634.1478 h -507.86 v 132.9 h 507.87 c 22.16,0 39.02,-5.54 50.64,-16.62 11.59,-11.07 17.4,-27.68 17.4,-49.84 0,-22.16 -5.81,-37.43 -17.4,-49.05 -11.62,-11.6 -28.48,-17.4 -50.64,-17.4 z"
       fill="#1d1d1b"
       stroke-width="0"
       id="path6" />
    <path
       d="m 813.12136,1267.0878 c 23.2,0 40.36,-5.54 51.43,-16.62 11.07,-11.07 16.61,-27.69 16.61,-49.84 0,-22.15 -5.53,-37.44 -16.61,-49.05 -11.07,-11.59 -28.23,-17.4 -51.43,-17.4 h -473.06 v 132.91 z"
       fill="#1d1d1b"
       stroke-width="0"
       id="path7" />
    <path
       d="m 340.06136,1267.0878 v -615.47 h -69.61 c -15.59,0 -29.13,2.38 -40.77,6.96 -10.47,3.41 -19.37,8.67 -26.58,15.89 -3.76,3.76 -6.96,8 -9.68,12.64 h 59.13 v 29.97 h -68.92 c -0.08,0.58 -0.05,1.26 -0.12,1.84 -0.52,4.46 -0.93,9.02 -0.93,13.93 v 74.17 h 69.97 v 29.97 h -69.97 v 89.94 h 69.97 v 29.97 h -69.97 v 89.94 h 69.97 v 29.97 h -69.97 v 89.94 h 69.97 v 29.97 h -69.97 v 89.94 h 69.97 v 29.97 h -69.97 v 89.94 h 69.97 v 29.97 h -69.97 v 89.94 h 69.97 v 29.97 h -69.97 v 89.94 h 69.97 v 29.98 h -69.97 v 11.05 c 0,2.41 0.12,4.72 0.25,7.02 1.18,21.84 7.89,39 20.27,51.36 12.4,12.43 29.65,19.14 51.61,20.28 5.02,0.57 10.22,0.95 15.74,0.95 h 69.61 v -499.96 z"
       fill="#739600"
       stroke-width="0"
       id="path8" />
    <text
       xml:space="preserve"
       id="text40"
       style="font-weight:bold;font-size:121.037px;line-height:1.25;font-family:Rockwell;-inkscape-font-specification:'Rockwell Bold';letter-spacing:2px;word-spacing:0px;white-space:pre;shape-inside:url(#rect40);display:inline"
       transform="matrix(2.4234993,0,0,2.4234993,-5072.1791,-180.71896)"><tspan
         x="2161"
         y="273.92472"
         id="tspan6"><tspan
           style="font-family:'Frutiger 67 Condensed';-inkscape-font-specification:'Frutiger 67 Condensed,  Bold'"
           id="tspan2">RED LATINOAMERICANA</tspan></tspan></text>
    <text
       xml:space="preserve"
       id="text40-3"
       style="font-weight:bold;font-size:111.822px;line-height:1.25;font-family:Rockwell;-inkscape-font-specification:'Rockwell Bold';letter-spacing:2px;word-spacing:0px;white-space:pre;shape-inside:url(#rect40-0);display:inline"
       transform="matrix(2.3132048,0,0,2.3132048,-4834.5132,1522.3137)"><tspan
         x="2161"
         y="265.61834"
         id="tspan8"><tspan
           style="font-family:'Frutiger 67 Condensed';-inkscape-font-specification:'Frutiger 67 Condensed,  Bold'"
           id="tspan7">EVIDENCIAS PARA EL AULA</tspan></tspan></text>
  </g>
</svg>
